<?xml version="1.0" encoding="UTF-8" standalone="no"?>
<svg xmlns="http://www.w3.org/2000/svg" version="1.1" width="30" height="30">
  <path d="M 14.99,4.99 c -5.52,0 -10,4.48 -10,9.99 l 0,0.01 c 0,5.07 3.78,9.26 8.67,9.91 l 0,-2.02 c 0,-0.57 -0.35,-1.07 -0.9,-1.26 c -2.83,-0.95 -4.84,-3.65 -4.76,-6.8 c 0.09,-3.84 3.22,-6.87 7.07,-6.84 c 3.83,0.04 6.93,3.16 6.93,7 c 0,0.09 0,0.18 0,0.27 c 0,0.02 0,0.04 0,0.06 c 0,0.08 -0.01,0.17 -0.01,0.24 c 0,0.02 0,0.06 -0.01,0.08 c 0,0.06 -0.01,0.11 -0.02,0.17 c -0.01,0.07 -0.01,0.12 -0.02,0.19 c 0,0.03 -0.01,0.06 -0.01,0.09 c -0.85,5.65 -8.21,8.82 -8.24,8.84 c 0.43,0.06 0.88,0.09 1.33,0.09 c 5.52,0 10,-4.48 10,-10.01 c 0,-5.53 -4.48,-10.01 -10,-10.01 l -0.01,0 z"
        style="fill:#ffffff"/>
</svg>
