<?xml version="1.0" encoding="UTF-8" standalone="no"?>
<svg xmlns="http://www.w3.org/2000/svg" version="1.1" width="30" height="30">
    <g style="fill:#ffffff">
        <path d="M 15.02,2.4 c -0.28,0 -0.57,0.11 -0.79,0.34 L 12.41,4.59 C 12.28,4.72 9.63,7.43 9.39,7.67 L 5.16,11.98 C 4.94,12.21 4.81,12.52 4.81,12.86 L 4.81,22.72 C 4.81,24.77 6.44,26.4 8.37,26.4 l 13.29,0 c 1.94,0 3.56,-1.63 3.56,-3.68 l 0,-9.86 c 0,-0.34 -0.14,-0.65 -0.35,-0.88 L 15.81,2.74 C 15.59,2.51 15.3,2.4 15.02,2.4 Z m -0.06,1.23 c 0.02,-0.02 0.1,-0.02 0.12,0 L 24.14,12.87 c 0.01,0.01 0,0 0,-0.01 l 0,9.86 C 24.14,24.06 23.06,25.2 21.66,25.2 l -13.29,0 C 6.98,25.2 5.89,24.06 5.89,22.72 L 5.89,12.86 c 0,0.01 -0.01,0.02 0,0.01 l 0,0 4.23,-4.31 c 0.24,-0.24 2.92,-2.98 3.02,-3.08 l 0,0 1.81,-1.85 z"/>
        <path d="M 7.21,25.79 C 6.5,25.57 5.85,25.01 5.54,24.32 5.45,24.13 5.37,23.81 5.34,23.54 5.31,23.29 5.28,20.78 5.28,17.94 L 5.28,12.78 10.12,7.85 c 2.66,-2.71 4.86,-4.94 4.89,-4.95 0.02,-0.01 2.23,2.21 4.9,4.93 l 4.85,4.95 0,5.35 c 0,4.63 -0.01,5.4 -0.09,5.72 -0.23,0.96 -0.91,1.67 -1.86,1.94 -0.49,0.14 -15.12,0.14 -15.59,0 z m 8.49,-4.33 0,-0.66 -0.59,0 -0.59,0 0,0.66 0,0.66 0.59,0 0.59,0 0,-0.66 z m -2.7,-1.3 c 0.07,-0.04 0.28,-0.25 0.47,-0.46 0.19,-0.21 0.5,-0.47 0.68,-0.57 0.3,-0.17 0.38,-0.18 0.92,-0.18 0.56,0 0.61,0.01 0.94,0.2 0.19,0.11 0.53,0.39 0.75,0.61 0.35,0.36 0.43,0.41 0.63,0.41 0.44,0 0.74,-0.51 0.55,-0.92 -0.21,-0.45 -1.05,-1.16 -1.73,-1.45 -0.34,-0.15 -0.45,-0.17 -1.14,-0.17 -0.7,0 -0.79,0.01 -1.12,0.16 -0.53,0.25 -0.94,0.54 -1.32,0.95 -0.44,0.47 -0.54,0.68 -0.45,0.95 0.13,0.43 0.51,0.65 0.81,0.47 z m -1.76,-2.56 c 0.07,-0.03 0.28,-0.21 0.47,-0.39 1.29,-1.26 2.84,-1.75 4.42,-1.38 0.83,0.19 1.61,0.65 2.37,1.39 0.41,0.4 0.55,0.47 0.81,0.38 0.26,-0.1 0.42,-0.34 0.42,-0.65 0,-0.23 -0.03,-0.29 -0.35,-0.64 -0.4,-0.43 -1.02,-0.92 -1.57,-1.22 -1.71,-0.96 -3.76,-0.93 -5.5,0.07 -0.75,0.43 -1.69,1.25 -1.81,1.57 -0.15,0.4 0.13,0.85 0.58,0.93 0.02,0 0.1,-0.02 0.17,-0.05 z m -1.53,-2.71 c 0.14,-0.1 0.49,-0.39 0.79,-0.63 1.05,-0.85 2.36,-1.48 3.49,-1.67 2.04,-0.34 3.93,0.27 6.07,1.97 0.31,0.25 0.64,0.47 0.73,0.49 0.22,0.05 0.49,-0.11 0.6,-0.35 0.2,-0.44 0.07,-0.68 -0.69,-1.27 -1.57,-1.22 -2.95,-1.89 -4.43,-2.16 -0.67,-0.12 -2.19,-0.08 -2.83,0.07 -0.66,0.16 -1.55,0.51 -2.17,0.85 -0.66,0.37 -1.88,1.25 -2.26,1.65 -0.23,0.24 -0.26,0.3 -0.26,0.53 0,0.39 0.26,0.7 0.6,0.71 0.06,0 0.23,-0.08 0.37,-0.19 z"/>
    </g>
</svg>
