<?xml version="1.0" encoding="UTF-8" standalone="no"?>
<!-- Created with Inkscape (http://www.inkscape.org/) -->

<svg
   width="200"
   height="26"
   viewBox="0 0 52.916665 6.8791667"
   version="1.1"
   id="svg1"
   inkscape:version="1.3.2 (091e20e, 2023-11-25)"
   sodipodi:docname="logo.svg"
   inkscape:export-filename="../../site/images/brand/logo.svg"
   inkscape:export-xdpi="96"
   inkscape:export-ydpi="96"
   xmlns:inkscape="http://www.inkscape.org/namespaces/inkscape"
   xmlns:sodipodi="http://sodipodi.sourceforge.net/DTD/sodipodi-0.dtd"
   xmlns="http://www.w3.org/2000/svg"
   xmlns:svg="http://www.w3.org/2000/svg">
  <sodipodi:namedview
     id="namedview1"
     pagecolor="#ffffff"
     bordercolor="#666666"
     borderopacity="1.0"
     inkscape:showpageshadow="2"
     inkscape:pageopacity="0.0"
     inkscape:pagecheckerboard="0"
     inkscape:deskcolor="#d1d1d1"
     inkscape:document-units="mm"
     inkscape:zoom="1.7722774"
     inkscape:cx="123.2877"
     inkscape:cy="61.502787"
     inkscape:window-width="1440"
     inkscape:window-height="779"
     inkscape:window-x="0"
     inkscape:window-y="25"
     inkscape:window-maximized="0"
     inkscape:current-layer="g2" />
  <defs
     id="defs1">
    <rect
       x="149.97614"
       y="249.96024"
       width="494.92126"
       height="227.46382"
       id="rect1" />
  </defs>
  <g
     inkscape:label="Layer 1"
     inkscape:groupmode="layer"
     id="layer1">
    <g
       id="g2"
       transform="translate(-37.435174,-38.915011)">
      <path
         style="font-weight:bold;font-size:24px;line-height:1.25;font-family:Montserrat;-inkscape-font-specification:'Montserrat Bold';white-space:pre;stroke-width:0.724487"
         d="m 157.24856,272.21118 q -1.824,0 -3.288,-0.816 -1.464,-0.84 -2.328,-2.328 -0.84,-1.488 -0.84,-3.504 0,-2.04 0.84,-3.528 0.864,-1.488 2.328,-2.304 1.464,-0.816 3.288,-0.816 1.632,0 2.856,0.72 1.224,0.72 1.896,2.184 0.672,1.464 0.672,3.744 0,2.256 -0.648,3.744 -0.648,1.464 -1.872,2.184 -1.2,0.72 -2.904,0.72 z m 0.648,-3.072 q 0.912,0 1.656,-0.432 0.744,-0.432 1.176,-1.224 0.456,-0.816 0.456,-1.92 0,-1.128 -0.456,-1.92 -0.432,-0.792 -1.176,-1.224 -0.744,-0.432 -1.656,-0.432 -0.936,0 -1.68,0.432 -0.744,0.432 -1.2,1.224 -0.432,0.792 -0.432,1.92 0,1.104 0.432,1.92 0.456,0.792 1.2,1.224 0.744,0.432 1.68,0.432 z m 3.384,2.88 v -2.64 l 0.072,-3.84 -0.24,-3.816 v -7.512 h 3.744 v 17.808 z m 12.47999,0.192 q -1.608,0 -2.88,-0.624 -1.248,-0.624 -1.944,-1.896 -0.696,-1.296 -0.696,-3.288 v -7.296 h 3.744 v 6.744 q 0,1.608 0.672,2.376 0.696,0.744 1.944,0.744 0.864,0 1.536,-0.36 0.672,-0.384 1.056,-1.152 0.384,-0.792 0.384,-1.968 v -6.384 h 3.744 v 12.912 h -3.552 v -3.552 l 0.648,1.032 q -0.648,1.344 -1.92,2.04 -1.248,0.672 -2.736,0.672 z m 11.04001,-0.192 v -17.808 h 3.744 v 17.808 z m 13.36801,0.192 q -2.064,0 -3.672,-0.864 -1.584,-0.864 -2.52,-2.352 -0.912,-1.512 -0.912,-3.432 0,-1.944 0.912,-3.432 0.936,-1.512 2.52,-2.352 1.608,-0.864 3.672,-0.864 2.04,0 3.648,0.864 1.608,0.84 2.52,2.328 0.912,1.488 0.912,3.456 0,1.92 -0.912,3.432 -0.912,1.488 -2.52,2.352 -1.608,0.864 -3.648,0.864 z m 0,-3.072 q 0.936,0 1.68,-0.432 0.744,-0.432 1.176,-1.224 0.432,-0.816 0.432,-1.92 0,-1.128 -0.432,-1.92 -0.432,-0.792 -1.176,-1.224 -0.744,-0.432 -1.68,-0.432 -0.936,0 -1.68,0.432 -0.744,0.432 -1.2,1.224 -0.432,0.792 -0.432,1.92 0,1.104 0.432,1.92 0.456,0.792 1.2,1.224 0.744,0.432 1.68,0.432 z m 9.57602,2.88 v -12.912 h 3.576 v 3.576 l -0.672,-1.08 q 0.696,-1.296 1.992,-1.992 1.296,-0.696 2.952,-0.696 1.536,0 2.736,0.624 1.224,0.6 1.92,1.872 0.696,1.248 0.696,3.216 v 7.392 h -3.744 v -6.816 q 0,-1.56 -0.696,-2.304 -0.672,-0.744 -1.92,-0.744 -0.888,0 -1.608,0.384 -0.696,0.36 -1.104,1.128 -0.384,0.768 -0.384,1.968 v 6.384 z m 22.82399,0.192 q -2.064,0 -3.672,-0.864 -1.584,-0.864 -2.52,-2.352 -0.912,-1.512 -0.912,-3.432 0,-1.944 0.912,-3.432 0.936,-1.512 2.52,-2.352 1.608,-0.864 3.672,-0.864 2.04,0 3.648,0.864 1.608,0.84 2.52,2.328 0.912,1.488 0.912,3.456 0,1.92 -0.912,3.432 -0.912,1.488 -2.52,2.352 -1.608,0.864 -3.648,0.864 z m 0,-3.072 q 0.936,0 1.68,-0.432 0.744,-0.432 1.176,-1.224 0.432,-0.816 0.432,-1.92 0,-1.128 -0.432,-1.92 -0.432,-0.792 -1.176,-1.224 -0.744,-0.432 -1.68,-0.432 -0.936,0 -1.68,0.432 -0.744,0.432 -1.2,1.224 -0.432,0.792 -0.432,1.92 0,1.104 0.432,1.92 0.456,0.792 1.2,1.224 0.744,0.432 1.68,0.432 z m 15.12002,3.072 q -1.824,0 -3.288,-0.816 -1.464,-0.84 -2.328,-2.328 -0.84,-1.488 -0.84,-3.504 0,-2.04 0.84,-3.528 0.864,-1.488 2.328,-2.304 1.464,-0.816 3.288,-0.816 1.632,0 2.856,0.72 1.224,0.72 1.896,2.184 0.672,1.464 0.672,3.744 0,2.256 -0.648,3.744 -0.648,1.464 -1.872,2.184 -1.2,0.72 -2.904,0.72 z m 0.648,-3.072 q 0.912,0 1.656,-0.432 0.744,-0.432 1.176,-1.224 0.456,-0.816 0.456,-1.92 0,-1.128 -0.456,-1.92 -0.432,-0.792 -1.176,-1.224 -0.744,-0.432 -1.656,-0.432 -0.936,0 -1.68,0.432 -0.744,0.432 -1.2,1.224 -0.432,0.792 -0.432,1.92 0,1.104 0.432,1.92 0.456,0.792 1.2,1.224 0.744,0.432 1.68,0.432 z m 3.384,2.88 v -2.64 l 0.072,-3.84 -0.24,-3.816 v -7.512 h 3.744 v 17.808 z m 13.43998,0.192 q -2.208,0 -3.888,-0.864 -1.656,-0.864 -2.568,-2.352 -0.912,-1.512 -0.912,-3.432 0,-1.944 0.888,-3.432 0.912,-1.512 2.472,-2.352 1.56,-0.864 3.528,-0.864 1.896,0 3.408,0.816 1.536,0.792 2.424,2.304 0.888,1.488 0.888,3.576 0,0.216 -0.024,0.504 -0.024,0.264 -0.048,0.504 h -10.488 v -2.184 h 8.52 l -1.44,0.648 q 0,-1.008 -0.408,-1.752 -0.408,-0.744 -1.128,-1.152 -0.72,-0.432 -1.68,-0.432 -0.96,0 -1.704,0.432 -0.72,0.408 -1.128,1.176 -0.408,0.744 -0.408,1.776 v 0.576 q 0,1.056 0.456,1.872 0.48,0.792 1.32,1.224 0.864,0.408 2.016,0.408 1.032,0 1.8,-0.312 0.792,-0.312 1.44,-0.936 l 1.992,2.16 q -0.888,1.008 -2.232,1.56 -1.344,0.528 -3.096,0.528 z"
         id="text1"
         transform="matrix(0.36293824,0,0,0.36747685,-7.5521838,-54.237149)"
         aria-label="dulonode" />
      <g
         fill="none"
         stroke="#000000"
         stroke-linecap="round"
         stroke-linejoin="round"
         stroke-width="0.684724"
         id="g6"
         transform="matrix(0.38384702,0,0,0.38898705,37.119069,37.686749)">
        <line
           x1="2.0999999"
           x2="14.5"
           y1="8.5"
           y2="3.5"
           id="line1"
           style="stroke-width:0.684724" />
        <line
           x1="3.5"
           x2="3.5"
           y1="20.5"
           y2="7.9400001"
           id="line2"
           style="stroke-width:0.684724" />
        <line
           x1="13.5"
           x2="13.5"
           y1="4"
           y2="20.5"
           id="line3"
           style="stroke-width:0.684724" />
        <polyline
           points="6.5 20.5 6.5 14.5 10.5 14.5 10.5 20.5"
           id="polyline3"
           style="stroke-width:0.684724" />
        <line
           x1="1.5"
           x2="22.5"
           y1="20.5"
           y2="20.5"
           id="line4"
           style="stroke-width:0.684724" />
        <line
           x1="21.799999"
           x2="13.5"
           y1="11.5"
           y2="9.5"
           id="line5"
           style="stroke-width:0.684724" />
        <line
           x1="20.5"
           x2="20.5"
           y1="20.469999"
           y2="11.5"
           id="line6"
           style="stroke-width:0.684724" />
      </g>
    </g>
  </g>
</svg>
